<?xml version="1.0"?>
<svg xmlns="http://www.w3.org/2000/svg" viewBox="0 0 64 64" width="512" height="512"><g id="virus-coronavirus-worldwide-internet-network"><path d="M50,20H45.95a13.985,13.985,0,0,0-27.9,0H14a5,5,0,0,0-5,5V47a5,5,0,0,0,5,5H27v4H24a3.009,3.009,0,0,0-3,3v2a1,1,0,0,0,1,1H42a1,1,0,0,0,1-1V59a3.009,3.009,0,0,0-3-3H37V52H50a5,5,0,0,0,5-5V25A5,5,0,0,0,50,20Zm-6.05,0H38.98a25.888,25.888,0,0,0-.75-5.46,14.322,14.322,0,0,0,2.57-1.67A11.938,11.938,0,0,1,43.95,20ZM32,26a13.878,13.878,0,0,0-4.36.71A24.215,24.215,0,0,1,27.02,22h9.96a24.215,24.215,0,0,1-.62,4.71A13.878,13.878,0,0,0,32,26Zm3.8,2.63C34.81,31.36,33.36,33,32,33s-2.81-1.64-3.8-4.37a11.775,11.775,0,0,1,7.6,0Zm-8.02,3.59a12.385,12.385,0,0,1-3.1-1.73,12.178,12.178,0,0,1,1.7-1.08A12.926,12.926,0,0,0,27.78,32.22ZM27.02,20a24.215,24.215,0,0,1,.62-4.71,13.742,13.742,0,0,0,8.72,0A24.215,24.215,0,0,1,36.98,20Zm10.6,9.41a12.178,12.178,0,0,1,1.7,1.08,12.385,12.385,0,0,1-3.1,1.73A12.926,12.926,0,0,0,37.62,29.41Zm.61-1.95A25.888,25.888,0,0,0,38.98,22h4.97a11.938,11.938,0,0,1-3.15,7.13A14.322,14.322,0,0,0,38.23,27.46Zm1.09-15.95a12.178,12.178,0,0,1-1.7,1.08,12.926,12.926,0,0,0-1.4-2.81A12.385,12.385,0,0,1,39.32,11.51ZM32,9c1.36,0,2.81,1.64,3.8,4.37a11.775,11.775,0,0,1-7.6,0C29.19,10.64,30.64,9,32,9Zm-4.22.78a12.926,12.926,0,0,0-1.4,2.81,12.178,12.178,0,0,1-1.7-1.08A12.385,12.385,0,0,1,27.78,9.78ZM23.2,12.87a14.322,14.322,0,0,0,2.57,1.67A25.888,25.888,0,0,0,25.02,20H20.05A11.938,11.938,0,0,1,23.2,12.87ZM25.02,22a25.888,25.888,0,0,0,.75,5.46,14.322,14.322,0,0,0-2.57,1.67A11.938,11.938,0,0,1,20.05,22ZM40,58a1,1,0,0,1,1,1v1H23V59a1,1,0,0,1,1-1ZM29,56V52h6v4Zm24-9a3.009,3.009,0,0,1-3,3H14a3.009,3.009,0,0,1-3-3V46H53Zm0-3H11V25a3.009,3.009,0,0,1,3-3h4.05A14,14,0,0,0,31,34.95V38H18.82a3,3,0,1,0,0,2H45.18a3,3,0,1,0,0-2H33V34.95A14,14,0,0,0,45.95,22H50a3.009,3.009,0,0,1,3,3ZM17,39a1,1,0,1,1-1-1A1,1,0,0,1,17,39Zm30,0a1,1,0,1,1,1,1A1,1,0,0,1,47,39Z"/><rect x="47" y="47" width="2" height="2"/><rect x="43" y="47" width="2" height="2"/><path d="M19,9a1,1,0,0,0-1,1H15.9a5.038,5.038,0,0,0-.73-1.75l1.49-1.49a1,1,0,1,0,1.41-1.42L16.66,3.93a1.008,1.008,0,0,0-1.42,0,1,1,0,0,0,0,1.41L13.75,6.83A5.038,5.038,0,0,0,12,6.1V4a1,1,0,0,0,0-2H10a1,1,0,0,0,0,2V6.1a5.038,5.038,0,0,0-1.75.73L6.76,5.34a1,1,0,0,0,0-1.41,1.008,1.008,0,0,0-1.42,0L3.93,5.34A1,1,0,0,0,5.34,6.76L6.83,8.25A5.038,5.038,0,0,0,6.1,10H4a1,1,0,0,0-2,0v2a1,1,0,0,0,2,0H6.1a5.038,5.038,0,0,0,.73,1.75L5.34,15.24a.976.976,0,0,0-.7-.29.966.966,0,0,0-.71.29,1.008,1.008,0,0,0,0,1.42l1.41,1.41a1.014,1.014,0,0,0,1.42,0,1,1,0,0,0,0-1.41l1.49-1.49A5.038,5.038,0,0,0,10,15.9V18a1,1,0,0,0,0,2h2a1,1,0,0,0,0-2V15.9a5.038,5.038,0,0,0,1.75-.73l1.49,1.49a1,1,0,0,0,0,1.41,1.014,1.014,0,0,0,1.42,0l1.41-1.41a1.008,1.008,0,0,0,0-1.42,1,1,0,0,0-1.41,0l-1.49-1.49A5.038,5.038,0,0,0,15.9,12H18a1,1,0,0,0,2,0V10A1,1,0,0,0,19,9Zm-8,5a3,3,0,1,1,3-3A3.009,3.009,0,0,1,11,14Z"/><rect x="10" y="10" width="2" height="2"/><path d="M61,9a1,1,0,0,0-1,1H57.9a5.038,5.038,0,0,0-.73-1.75l1.49-1.49a1,1,0,0,0,1.41-1.42L58.66,3.93a1.008,1.008,0,0,0-1.42,0,1,1,0,0,0,0,1.41L55.75,6.83A5.038,5.038,0,0,0,54,6.1V4a1,1,0,0,0,0-2H52a1,1,0,0,0,0,2V6.1a5.038,5.038,0,0,0-1.75.73L48.76,5.34a1,1,0,0,0,0-1.41,1.008,1.008,0,0,0-1.42,0L45.93,5.34a1,1,0,0,0,1.41,1.42l1.49,1.49A5.038,5.038,0,0,0,48.1,10H46a1,1,0,0,0-2,0v2a1,1,0,0,0,2,0h2.1a5.038,5.038,0,0,0,.73,1.75l-1.49,1.49a.976.976,0,0,0-.7-.29.966.966,0,0,0-.71.29,1.008,1.008,0,0,0,0,1.42l1.41,1.41a1.014,1.014,0,0,0,1.42,0,1,1,0,0,0,0-1.41l1.49-1.49A5.038,5.038,0,0,0,52,15.9V18a1,1,0,0,0,0,2h2a1,1,0,0,0,0-2V15.9a5.038,5.038,0,0,0,1.75-.73l1.49,1.49a1,1,0,0,0,0,1.41,1.014,1.014,0,0,0,1.42,0l1.41-1.41a1.008,1.008,0,0,0,0-1.42,1,1,0,0,0-1.41,0l-1.49-1.49A5.038,5.038,0,0,0,57.9,12H60a1,1,0,0,0,2,0V10A1,1,0,0,0,61,9Zm-8,5a3,3,0,1,1,3-3A3.009,3.009,0,0,1,53,14Z"/><rect x="52" y="10" width="2" height="2"/></g></svg>
