<?xml version="1.0" encoding="iso-8859-1"?>
<!-- Generator: Adobe Illustrator 19.0.0, SVG Export Plug-In . SVG Version: 6.00 Build 0)  -->
<svg version="1.1" id="Capa_1" xmlns="http://www.w3.org/2000/svg" xmlns:xlink="http://www.w3.org/1999/xlink" x="0px" y="0px"
	 viewBox="0 0 480 480" style="enable-background:new 0 0 480 480;" xml:space="preserve">
<g>
	<g>
		<path d="M440,80H40C17.92,80.026,0.026,97.92,0,120v240c0.026,22.08,17.92,39.974,40,40h400c22.08-0.026,39.974-17.92,40-40V120
			C479.974,97.92,462.08,80.026,440,80z M464,360c0,13.255-10.745,24-24,24H40c-13.255,0-24-10.745-24-24V120
			c0-13.255,10.745-24,24-24h400c13.255,0,24,10.745,24,24V360z"/>
	</g>
</g>
<g>
	<g>
		<path d="M446.856,115.88c-2.276-3.786-7.189-5.011-10.976-2.736L260.576,218.32c-12.658,7.624-28.494,7.624-41.152,0
			L44.12,113.144c-3.828-2.207-8.72-0.893-10.927,2.934c-2.151,3.73-0.964,8.494,2.687,10.778L211.2,232.04
			c17.722,10.654,39.878,10.654,57.6,0l175.32-105.184C447.906,124.58,449.131,119.667,446.856,115.88z"/>
	</g>
</g>
<g>
	<g>
		<path d="M40,144c-4.418,0-8,3.582-8,8v208c0,4.418,3.582,8,8,8s8-3.582,8-8V152C48,147.582,44.418,144,40,144z"/>
	</g>
</g>
<g>
	<g>
		<path d="M440,144c-4.418,0-8,3.582-8,8v208c0,4.418,3.582,8,8,8s8-3.582,8-8V152C448,147.582,444.418,144,440,144z"/>
	</g>
</g>
<g>
</g>
<g>
</g>
<g>
</g>
<g>
</g>
<g>
</g>
<g>
</g>
<g>
</g>
<g>
</g>
<g>
</g>
<g>
</g>
<g>
</g>
<g>
</g>
<g>
</g>
<g>
</g>
<g>
</g>
</svg>
